<?xml version="1.0" encoding="UTF-8"?>
<svg version="1.1" viewBox="0 0 2000 2000" width="500" height="500" xmlns="http://www.w3.org/2000/svg">
<path transform="translate(0)" d="m0 0h2e3v2e3h-2e3z" fill="#FEFEFE"/>
<path transform="translate(792,372)" d="m0 0h18l25 1 30 3 29 5 32 8 24 8 24 10 19 9 2 2 3 86v28l-5 3-4-1-10-19-8-15-16-24-11-13-9-10-9-9-11-9-13-10-15-9-16-8-24-9-24-6-19-3-10-1h-44l-19 3-23 6-18 8-13 8-14 10-13 13-9 13-6 10-6 15-4 15-2 11-1 21 2 18 5 18 8 17 9 13 9 10 3 3v2l4 2 7 7 16 12 28 17 32 16 30 13 44 18 35 14 90 1 4 5 17 29 10 16 12 20 34 56 12 20 34 56 12 20 14 23 9 15 4 6v3h-91l-4-2-5-10h-2l-5 11-4 1h-44l2-11 3-26-1-17-3-16-6-16-7-14-8-11-9-11-11-11-8-6-1 138-3 1h-8l-6-1-1-142-1-12-5-2-9-6-21-12-28-14-37-16-37-15-36-15-28-13-25-13-21-13-12-9-11-9-12-11-12-14-9-14-8-16-6-18-4-20-1-9v-31l2-19 4-17 6-18 8-17 10-16 9-11 9-10 10-10 13-10 15-10 23-12 23-9 25-7 26-5 27-3z" fill="#020202"/>
<path transform="translate(1457,703)" d="m0 0h111v12l-9 4-16 9-11 11-8 14-6 16-5 22-3 24-2 43-1 114h-80v-188h-2l-2 5-15 26-15 25-13 22-17 28-6 10-6 11-29 49-6 10-3 2h-14l-2-2 10-16 17-29 15-25 10-17 24-40 17-29 17-28 15-26 12-20 13-22 8-14z" fill="#020202"/>
<path transform="translate(1427,1117)" d="m0 0h80l1 164 1 27 2 23 5 21 4 9 6 9 8 7 12 6 1 1v10l-3 2h-155l-2-1v-11l7-4 10-6 8-9 7-16 3-12 3-24 1-22z" fill="#020202"/>
<path transform="translate(886,1117)" d="m0 0h16l1 2v126l2 34 3 24 5 23 6 16 9 15 10 10 14 9 15 6 3 2v10l-3 2h-98l-23-1-1-10 3-3 12-6 9-8 7-14 5-19 2-17 1-13 1-187z" fill="#020202"/>
<path transform="translate(1102,1117)" d="m0 0h93l5 7 1 5h3l2-5 4-6 1-1h17l-6 12-7 11-6 11-13 22-10 17-10 16-1 1h-19l-10-16-34-56-10-16z" fill="#020202"/>
<path transform="translate(697,1010)" d="m0 0h13l11 4 10 9 5 8 2 7 1 9-2 11-4 8-6 7-9 6-8 2h-13l-11-4-10-9-6-11-1-4v-15l4-10 8-10 10-6z" fill="#FEFEFE"/>
<path transform="translate(1431,999)" d="m0 0h22l13 2 9 4 5 4 4 6 2 6v15l-4 9-5 6-5 2 3 7 11 18 8 12-1 2h-11l-5-5-11-17-7-11-1-1h-17v33h-11l-1-8v-83z" fill="#020202"/>
<path transform="translate(550,873)" d="m0 0h8l5 11 10 24 14 26 11 18 10 14 3 4v2h-60l-1-1-3-76v-21z" fill="#020202"/>
<path transform="translate(989,998)" d="m0 0 3 3 14 20 24 34 5 5 7-11 14-19 12-17 10-14h2v92l-4 1h-7l-1-1v-58h-2l-2 5-13 18-7 10-9 13-4-2-12-17-10-14-7-10-2-1v56l-9 1-2-1-1-9z" fill="#020202"/>
<path transform="translate(695,999)" d="m0 0h18l11 4 9 6 9 9 7 14 2 11-1 13-4 11-6 9-7 7-13 7-8 2h-17l-10-3-9-5-9-8-7-12-3-11v-14l2-9 7-13 4-5 11-8 10-4zm2 11-10 4-8 6-7 10-3 8v15l4 10 6 8 9 7 9 3h13l10-3 10-8 5-7 3-8 1-9-2-12-5-10-8-8-10-5-4-1z" fill="#020202"/>
<path transform="translate(1137,996)" d="m0 0 3 3 17 41 18 43 3 9h-13l-5-10-5-13-1-1h-34l-5 10-5 12-1 1h-11l1-5 11-25 12-29 11-26z" fill="#020202"/>
<path transform="translate(1380,999)" d="m0 0h16l9 1v11l-47 1-1 27h38l5 1v11l-42 1v27l49 1v11l-61 1-1-92z" fill="#020202"/>
<path transform="translate(861,999)" d="m0 0 12 1 1 39 12-13 24-24 1-2 7-1h8l-2 5-29 29-1 2h-2l-1 5 12 16 13 17 12 15v3l-6 1-8-1-11-14-16-21-5-7-5 1-3 4-1 29-1 8h-11l-1-1z" fill="#020202"/>
<path transform="translate(1217,999)" d="m0 0h11l12 3 7 3 1 3-4 7-9-3-5-1h-14l-7 4-2 4 1 9 7 6 19 8 10 7 4 6 2 9-1 9-5 10-8 6-8 3-10 1-12-2-11-4-5-4 1-4 2-5 6 2 10 4 5 1h9l8-3 5-6v-10l-2-4-10-6-19-9-6-5-4-7-1-3v-10l5-10 6-5 7-3z" fill="#020202"/>
<path transform="translate(534,999)" d="m0 0h11l12 3 7 3 1 3-3 6-7-1-8-2h-14l-7 4-2 4v7l6 7 26 12 6 5 4 9v14l-5 10-8 6-9 3h-15l-12-3-8-4-2-4 4-6 5 1 9 4 5 1h12l6-3 3-1 2-5v-10l-2-4-11-7-16-7-7-5-5-8-1-3v-9l4-10 7-6 7-3z" fill="#020202"/>
<path transform="translate(802,999)" d="m0 0h19l14 5 2 2-1 5-2 5-5-1-8-3-5-1h-10l-11 4-8 7-6 10-2 7v14l4 11 7 9 8 5 6 2h15l10-3 6-2 3 7-1 4-8 4-8 2h-18l-13-4-11-8-7-9-4-8-2-8v-18l3-10 5-10 7-8 11-7z" fill="#020202"/>
<path transform="translate(582,999)" d="m0 0 60 1-1 11-23 1-1 79-10 1-2-1-1-79-23-1v-11z" fill="#020202"/>
<path transform="translate(1266,999)" d="m0 0 60 1v9l-1 2-23 1-1 72-1 7h-11l-1-79-23-1-1-4 1-7z" fill="#020202"/>
<path transform="translate(1442,1011)" d="m0 0h17l9 3 5 7 1 3v10l-4 7-3 3-8 2h-17l-1-1v-33z" fill="#FEFEFE"/>
<path transform="translate(1137,1024)" d="m0 0 3 3 10 27v3h-26l1-5 11-27z" fill="#FEFEFE"/>
</svg>
